<mxfile host="app.diagrams.net" modified="2023-04-06T16:28:33.133Z" agent="Mozilla/5.0 (Windows NT 10.0; Win64; x64) AppleWebKit/537.36 (KHTML, like Gecko) Chrome/111.0.0.0 Safari/537.36" version="21.1.4" etag="cdPZb8PT0b7AITY-TvDZ" type="github">
  <diagram name="PÃ¡gina-1" id="4XxnwjUi3ISb-7ZRj2YP">
    <mxGraphModel>
      <root>
        <mxCell id="0" />
        <mxCell id="1" parent="0" />
      </root>
    </mxGraphModel>
  </diagram>
</mxfile>
